<svg xmlns="http://www.w3.org/2000/svg" width="100" height="44" viewBox="0 0 100 44">
    <g fill="none" fill-rule="evenodd">
        <g>
            <g>
                <path fill="#8895A5" d="M5.594 40.654l2.3-6.232c.138-.416-.057-.72-.804-.83v-.555h3.434v.554c-.61.027-1.107.138-1.384.887l-3.407 8.917h-.75l-3.792-8.973c-.332-.776-.914-.804-1.191-.804v-.581h3.96v.554c-.636.111-.802.47-.72.72l2.354 6.343zm9.444 1.134c0 .333.165.499.498.638.194.083.471.166.665.194v.526h-4.07v-.526c.137-.028.58-.14.719-.222.25-.137.443-.277.443-.636v-7.367c0-.554-.692-.777-1.162-.832v-.526h4.07v.526c-.554.112-1.163.223-1.163.86v7.365zM25.7 33.037l.055 2.824h-.526c-.138-.554-.278-1.024-.526-1.355-.361-.472-.886-.693-1.661-.693-2.576 0-2.825 2.574-2.825 4.236 0 1.69.304 4.32 3.018 4.266.83-.028 2.077-.498 2.907-1.578l.085-.112.553.416-.028.054c-.941 1.663-2.742 2.273-3.877 2.273-3.212 0-4.846-2.854-4.846-5.235 0-1.938 1.19-5.29 4.265-5.29 1.19 0 2.077.277 2.824.665l.11-.471h.472zm6.812 1.08v7.59c0 .358.249.636.638.774.193.082.415.111.664.139v.526h-4.237v-.526c.249-.028.444-.057.747-.166.306-.111.555-.39.555-.778l-.029-7.558h-1.328c-.803 0-1.053.331-1.191.693-.11.303-.139.609-.139.913l-.58-.027v-2.66h8.168v2.687h-.609c-.028-.417-.084-.776-.221-1.053-.195-.387-.5-.553-.887-.553h-1.55zm14.124 4.071c-.055 2.659-1.827 5.207-4.708 5.207-2.935 0-4.819-2.326-4.874-5.262-.055-2.742 1.829-5.318 4.846-5.318 2.936 0 4.792 2.632 4.736 5.373zm-7.45-.166c-.053 2.077.638 4.32 2.687 4.32 2.132 0 2.658-2.298 2.603-4.376-.054-2.021-.386-4.125-2.603-4.125-2.3 0-2.658 2.132-2.686 4.181zm18.943 5.124h-2.464l-2.19-3.794h-1.743v2.41c0 .387.277.747 1.246.858l.028.526h-4.265v-.554c.276 0 .526-.055.776-.166.249-.111.498-.389.498-.693V34.56c0-.664-.692-.914-1.386-.997v-.526h4.847c1.69 0 3.74 1.136 3.74 3.075 0 .997-.445 2.437-2.077 2.963l1.66 2.742c.278.444.638.746 1.303.803l.027.526zm-5.317-9.085c-.084 0-.471.028-1.053.084v4.292h1.717c1.274-.082 1.8-.747 1.8-2.27 0-1.883-1.136-2.106-2.464-2.106zm10.302 7.727c0 .333.166.499.497.638.195.083.472.166.666.194v.526h-4.07v-.526c.138-.028.58-.14.72-.222.249-.137.441-.277.441-.636v-7.367c0-.554-.69-.777-1.16-.832v-.526h4.069v.526c-.554.112-1.163.223-1.163.86v7.365zm12.904 1.358h-.387l-6.398-7.45v6.066c0 .248.167.47.444.664.276.166.498.166.748.194v.526h-3.407v-.526c.167-.028.388-.057.582-.14.333-.11.582-.359.582-.718v-7.229c-.25-.5-.803-.97-1.44-.97v-.526h2.63l5.567 6.62v-5.235c0-.553-.665-.859-1.163-.859v-.526h3.432v.526c-.58.055-1.19.223-1.19.832v8.751zm12.601-4.985c-.056 2.658-1.826 5.207-4.734 5.207s-4.82-2.327-4.876-5.262c-.027-2.742 1.857-5.317 4.848-5.317 2.965 0 4.818 2.63 4.762 5.372zm-7.477-.166c-.027 2.076.638 4.32 2.715 4.32 2.105 0 2.659-2.3 2.604-4.377-.056-2.02-.416-4.125-2.604-4.125-2.298-.027-2.686 2.132-2.715 4.182zm14.483-.36l2.606 3.905c.247.387.553.637.83.803.14.083.498.277.748.277v.526h-4.32v-.526c.027 0 .413-.057.662-.166.25-.111.332-.417.112-.692l-1.745-2.632-1.993 2.687c-.36.414-.056.746.443.803v.526h-3.213v-.554c.746-.111 1.025-.415 1.357-.859l2.713-3.655-2.408-3.572c-.389-.582-.997-.943-1.58-.943v-.526h4.406v.526c-.5.055-1.22.223-.859.804l1.523 2.27 1.717-2.27c.36-.443.082-.776-.473-.804v-.526h3.243v.526c-.527.028-.804.25-1.11.555l-2.659 3.517z" transform="translate(-517 -684) translate(517 684)"/>
                <path fill="#FFFFFE" d="M41.592 11.457c0-2.732-.462-5.36-1.253-7.83l.016-.036c.637-.31 1.933-.977 3.238-1.68 1.415-.76 2.968-1.48 3.758-1.638 1.025-.205 1.98.105 2.555.986.573-.881 1.528-1.19 2.553-.986.79.158 2.343.878 3.758 1.639 1.305.702 2.6 1.368 3.237 1.675l.016.037c-.79 2.473-1.251 5.101-1.251 7.833 0 2.614.5 5.117 1.227 7.496l-.018.036c-4.35 1.612-6.996 3.634-9.497 6.24h-.043c-2.505-2.606-5.126-4.62-9.505-6.236l-.017-.037c.726-2.381 1.226-4.884 1.226-7.5" transform="translate(-517 -684) translate(517 684)"/>
                <path fill="#8895A5" fill-rule="nonzero" d="M49.905.903l-.052-.065c-.618-.704-1.534-.975-2.544-.773-.31.062-.742.21-1.253.42l-.457.197-.49.225-.519.25-.268.135-.549.284-1.33.708-1.45.751-.573.288-.158.078-.101.105-.016.035-.008.15c.816 2.55 1.243 5.151 1.243 7.766 0 2.396-.418 4.82-1.217 7.437l.012.155.018.037.117.106c3.978 1.468 6.622 3.267 9.425 6.184l.153.065h.043l.153-.065c2.787-2.904 5.457-4.72 9.417-6.188l.116-.104.019-.037.013-.156c-.8-2.615-1.218-5.039-1.218-7.434 0-2.615.426-5.217 1.24-7.768l-.007-.15-.016-.036-.102-.106-.52-.257-.651-.332-1.529-.8-.808-.432-.55-.284-.267-.134-.518-.251c-.169-.08-.333-.155-.49-.225l-.458-.196-.418-.165c-.264-.1-.499-.175-.696-.224l-.14-.032c-1.01-.202-1.926.069-2.543.773l-.053.065zM52.418.48c.288.057.702.2 1.198.406l.444.192.478.22.506.245.529.267 1.676.89 1.082.561.682.345.208.103.047-.15c-.828 2.591-1.261 5.237-1.261 7.897l.006.523c.052 2.097.415 4.218 1.063 6.47l.118.4-.316.121c-3.608 1.399-6.164 3.13-8.76 5.763l-.209.213-.196-.202c-2.619-2.654-5.16-4.375-8.796-5.777l-.3-.113-.049.163c.81-2.655 1.236-5.12 1.236-7.561l-.008-.614c-.056-2.248-.42-4.484-1.07-6.682l-.139-.448.816-.411.976-.506 1.052-.557.537-.287.537-.277.517-.257.25-.12.479-.22.444-.191c.495-.206.909-.349 1.198-.406.98-.196 1.829.117 2.335.893l.178.273.177-.273C50.557.646 51.332.326 52.236.45l.182.03z" transform="translate(-517 -684) translate(517 684)"/>
                <path fill="#8895A5" d="M54.948 3.196c-1.096-.545-2.23-1.066-2.839-1.188-1.158-.23-2.04.691-2.181 1.249l-.03.114-.028-.114c-.14-.559-1.003-1.48-2.161-1.249-.61.122-1.743.643-2.84 1.188-1.077.537-2.114 1.094-2.577 1.317.626 2.058.963 4.207.975 6.485h1.55v-1.17h3.519V6.31h3.075v3.518h3.518v1.17h1.624c.01-2.278.347-4.427.972-6.486-.462-.222-1.5-.78-2.577-1.316M49.9 22.925c2.11-1.994 4.737-3.927 7.595-4.916-.286-.988-.573-2.356-.74-3.713-.153-1.242-.19-2.385-.206-2.565h-1.62v1.172h-3.517v3.517h-3.075v-3.517h-3.518v-1.17h-1.56c-.051 2.098-.405 4.413-.947 6.276 2.857.989 5.476 2.923 7.587 4.916" transform="translate(-517 -684) translate(517 684)"/>
            </g>
        </g>
    </g>
</svg>
