<svg xmlns="http://www.w3.org/2000/svg" width="100" height="30" viewBox="0 0 100 30">
    <g fill="none" fill-rule="evenodd">
        <g fill="#8895A5">
            <g>
                <path d="M38.697.612c-8.258 0-14.953 5.12-14.953 11.434 0 1.237.26 2.426.735 3.541-3.997 2.625-7.38 2.91-9.476 2.91-3.4 0-6.157-2.757-6.157-6.157s2.756-6.157 6.157-6.157c1.6 0 4.152 1.61 4.152 1.61s5.116-4.737 4.543-5.05c-2.45-1.341-5.452-2.13-8.695-2.13C6.745.612.05 5.73.05 12.045c0 6.315 6.695 11.435 14.953 11.435 4.825 0 9.113-1.75 11.847-4.462 2.734 2.713 7.022 4.462 11.847 4.462 8.258 0 14.952-5.12 14.952-11.435S46.955.612 38.697.612zM32.54 12.34c0-3.4 2.756-6.157 6.157-6.157 3.4 0 6.156 2.756 6.156 6.157 0 3.4-2.756 6.156-6.156 6.156S32.54 15.74 32.54 12.34z" transform="translate(-216 -691) translate(216 691)"/>
                <path d="M59.738.365c5.177 0 9.74 2.013 12.423 5.07V.846h7.302v2.169C81.553 1.698 84.126.92 86.911.92c6.988 0 12.653 4.893 12.653 10.928 0 6.036-5.665 10.928-12.653 10.928-2.785 0-5.358-.778-7.448-2.095v8.8h-7.302V18.164c-2.684 3.057-7.246 5.069-12.423 5.069-8.258 0-14.952-5.119-14.952-11.434C44.786 5.485 51.48.365 59.738.365zm0 5.572c-3.4 0-6.157 2.756-6.157 6.156s2.756 6.157 6.157 6.157c3.4 0 6.157-2.756 6.157-6.157 0-3.4-2.757-6.156-6.157-6.156zm25.597.04c-3.243 0-5.872 2.628-5.872 5.87 0 3.243 2.629 5.872 5.872 5.872 3.242 0 5.87-2.629 5.87-5.871 0-3.243-2.628-5.871-5.87-5.871z" transform="translate(-216 -691) translate(216 691)"/>
                <path d="M53.61 11.399c-.221-2.976-1.932-5.644-4.569-7.583-2.555 1.997-4.159 4.706-4.258 7.702.037.273.052 1.098.044 1.229.303 2.865 1.986 5.43 4.541 7.308 2.437-1.903 4.01-4.453 4.237-7.283.035-.223-.021-1.141.006-1.373z" transform="translate(-216 -691) translate(216 691)"/>
            </g>
        </g>
    </g>
</svg>
