<svg xmlns="http://www.w3.org/2000/svg" width="100" height="37" viewBox="0 0 100 37">
    <g fill="none" fill-rule="evenodd">
        <g fill="#8895A5">
            <g>
                <path d="M48.816 0v14.267h-14.87V0h14.87zm-1.964 1.279H35.88V4.41h3.534v8.775h3.905V4.411h3.533V1.279zM65.747 0v14.267h-14.87V0h14.87zm-5.894 1.823h-3.124v3.764h-3.793V8.7h3.793v3.781h3.124V8.7h3.776V5.587h-3.776V1.823zM0 17.959L17.047 17.959 17.047 22.41 11.33 22.41 11.33 36.068 5.715 36.068 5.715 22.41 0 22.41 0 17.959M19.177 36.067L24.792 36.067 24.792 17.959 19.177 17.959zM27.264 29.914h5.362c.115.871.35 1.366.703 1.82.575.732 1.397 1.097 2.467 1.097.8 0 1.414-.185 1.848-.559.43-.37.648-.804.648-1.3 0-.471-.208-.893-.621-1.263-.416-.364-1.376-.712-2.883-1.042-2.467-.554-4.227-1.29-5.277-2.209-1.06-.91-1.589-2.077-1.589-3.5 0-.929.27-1.804.812-2.633.543-.828 1.356-1.48 2.443-1.956 1.09-.475 2.581-.714 4.474-.714 2.326 0 4.098.432 5.317 1.294 1.221.86 1.947 2.388 2.18 4.27h-5.312c-.142-.81-.434-1.247-.883-1.617-.45-.373-1.068-.558-1.858-.558-.65 0-1.14.14-1.47.416-.329.277-.493.614-.493 1.01 0 .28.134.536.406.767.263.24.89.464 1.882.67 2.46.53 4.221 1.062 5.285 1.6 1.063.534 1.838 1.204 2.322 2.004s.727 1.692.727 2.672c0 1.163-.322 2.235-.968 3.212-.644.978-1.545 1.72-2.702 2.223-1.157.502-2.617.754-4.378.754-3.09 0-5.231-.594-6.422-1.777-1.19-1.184-1.864-2.857-2.02-4.68M44.974 29.914h5.362c.115.871.35 1.366.704 1.82.575.732 1.397 1.097 2.467 1.097.798 0 1.413-.185 1.846-.559.432-.37.649-.804.649-1.3 0-.471-.207-.893-.622-1.263-.413-.364-1.375-.712-2.881-1.042-2.468-.554-4.227-1.29-5.279-2.209-1.059-.91-1.588-2.077-1.588-3.5 0-.929.27-1.804.812-2.633.542-.828 1.356-1.48 2.445-1.956 1.087-.475 2.579-.714 4.473-.714 2.324 0 4.096.432 5.317 1.294 1.22.86 1.946 2.388 2.178 4.27h-5.31c-.141-.81-.436-1.247-.884-1.617-.449-.373-1.067-.558-1.857-.558-.652 0-1.142.14-1.471.416-.33.277-.493.614-.493 1.01 0 .28.135.536.405.767.264.24.89.464 1.884.67 2.46.53 4.22 1.062 5.284 1.6 1.065.534 1.84 1.204 2.322 2.004.484.8.727 1.692.727 2.672 0 1.163-.322 2.235-.967 3.212-.646.978-1.546 1.72-2.703 2.223-1.157.502-2.616.754-4.376.754-3.093 0-5.233-.594-6.424-1.777-1.19-1.184-1.863-2.857-2.02-4.68M70.214 23.098c.684-.796 1.593-1.194 2.724-1.194 1.178 0 2.112.391 2.802 1.175.69.78 1.033 2.022 1.033 3.719 0 2.02-.33 3.419-.988 4.2-.662.784-1.595 1.174-2.799 1.174-1.17 0-2.097-.4-2.778-1.197-.683-.798-1.022-2.109-1.022-3.93 0-1.837.343-3.154 1.028-3.947zm-5.39 9.214c.832 1.408 1.922 2.439 3.264 3.087 1.341.648 3.036.973 5.084.973 2.014 0 3.699-.375 5.048-1.127 1.35-.753 2.381-1.807 3.096-3.163.716-1.354 1.072-3.09 1.072-5.207 0-2.907-.817-5.172-2.453-6.79-1.634-1.619-3.963-2.43-6.985-2.43-2.95 0-5.25.825-6.901 2.469-1.653 1.643-2.477 3.944-2.477 6.902 0 2.115.417 3.878 1.251 5.286zM82.246 17.959L99.293 17.959 99.293 22.41 93.577 22.41 93.577 36.068 87.962 36.068 87.962 22.41 82.246 22.41 82.246 17.959" transform="translate(-673 -688) translate(673 688)"/>
            </g>
        </g>
    </g>
</svg>
