<svg xmlns="http://www.w3.org/2000/svg" width="100" height="40" viewBox="0 0 100 40">
    <g fill="none" fill-rule="evenodd">
        <g fill="#8895A5">
            <g>
                <path d="M33.966 38.142c.46-.03.653-.062.87-.149.666-.267.858-.882.914-1.113.069-.273.069-.472.069-.584 0-.217-.007-.876-.435-1.398-.311-.367-.703-.522-1.17-.566-.123-.006-.241-.012-.366-.012-.118 0-.236 0-.36.006-.18.006-.367.019-.553.037-.013.112-.02.224-.025.336-.007.193 0 .392 0 .584.006.442-.007.877-.007 1.312 0 .51.013 1.013.026 1.522l1.037.025zm-.118.292c-.316-.006-.627-.024-.938-.024-.218 0-.436.012-.653.024.012-.341.025-.683.03-1.025.014-.398.02-.796.02-1.193 0-.386 0-.765-.012-1.15-.007-.342-.026-.684-.057-1.02.224.007.442.013.66.007.267-.006.522-.02.783-.025.186-.006.372.006.559.012.106.007.503.031.851.156.423.149.703.397.82.516.243.242.616.745.616 1.616 0 .901-.422 1.404-.696 1.634-.466.392-1.026.435-1.23.454l-.28.018h-.473z" transform="translate(-372 -686) translate(372 686) matrix(1 0 0 -1 0 72.46)"/>
                <path fill-rule="nonzero" d="M38.112 38.103c.236 0 .472.007.708.007.317-.007.634-.031.951-.062-.025.18-.019.23.031.403-.478-.024-.95-.055-1.436-.055-.304 0-.615.018-.92.037.063-.43.038-.522.044-.777.006-.249.012-.491.012-.734 0-.46-.006-.913-.012-1.367 0-.18 0-.36-.006-.54 0-.144.006-.293 0-.436-.007-.174-.025-.335-.038-.503.317.012.628.019.945.019.491 0 .976-.02 1.46-.044-.018.118-.024.137-.024.205 0 .08.012.149.019.18-.187-.006-.367-.018-.554-.025-.397-.012-.79-.012-1.187-.012v1.834c.125.012.255.018.386.018.118 0 .236-.006.354-.006.168-.006.33-.006.491-.019.1-.006.199-.018.304-.037-.018.18-.018.23.013.404-.143-.012-.292-.037-.435-.043-.1-.007-.193-.007-.292-.007-.267 0-.541 0-.808-.006l-.006 1.566z" transform="translate(-372 -686) translate(372 686) matrix(1 0 0 -1 0 72.502)"/>
                <path d="M41.334 38.147c.61.025.876.019 1.143-.143.262-.174.373-.429.373-.74 0-.236-.074-.472-.224-.658-.248-.311-.571-.355-1.292-.336v1.877zm-.622-.373c.019-.479.019-.95.019-1.423 0-.442.006-.883-.006-1.324-.007-.33-.032-.66-.063-.988.13.018.23.037.367.037.106 0 .174-.013.367-.044-.006.106-.019.212-.031.317-.013.18-.013.367-.013.547-.006.367-.012.74-.012 1.107.13-.006.267-.013.398-.013.429-.006.976.1 1.33.373.286.224.46.572.46.939 0 .31-.106.522-.168.615-.124.205-.367.435-.907.49-.088.014-.175.014-.268.02-.286-.006-.565-.02-.851-.02-.218 0-.442.007-.66.02l.038-.653z" transform="translate(-372 -686) translate(372 686) matrix(1 0 0 -1 0 72.459)"/>
                <path fill-rule="nonzero" d="M47.462 38.184c.018-.472.043-.945.043-1.417 0-.323-.012-.64-.018-.957-.025-.305-.05-.448-.1-.584-.105-.299-.441-.84-1.256-.84-.776 0-1.087.48-1.186.784-.1.28-.112.659-.119.733-.006.485-.018.97-.006 1.448.006.386.031.777.062 1.162-.118-.005-.236-.012-.348-.012-.13 0-.255.012-.379.019.013-.274.031-.547.037-.827.013-.255.007-.503.007-.758 0-.41 0-.82-.007-1.23.025-.417.05-.579.137-.778.031-.068.093-.211.224-.354.479-.522 1.287-.528 1.448-.528.715 0 1.088.205 1.336.422.168.15.405.43.498.97.018.118.025.236.037.354.006.193.006.392.012.585.007.397.007.801.025 1.199.013.317.044.628.075.938-.093-.005-.187-.012-.28-.012-.093 0-.186.007-.28.019l.038-.336z" transform="translate(-372 -686) translate(372 686) matrix(1 0 0 -1 0 72.564)"/>
                <path fill-rule="nonzero" d="M49.683 38.426c-.13-.012-.224-.024-.36-.024-.112 0-.175.006-.367.03.012-.136.025-.28.031-.422.025-.354.031-.721.031-1.082 0-.236-.006-.466-.006-.695 0-.38 0-.759-.007-1.138 0-.354-.018-.702-.043-1.05.2.025.261.03.373.03.124 0 .249-.012.373-.024-.019.18-.037.36-.05.547-.018.292-.018.584-.018.882-.007.423-.013.846-.013 1.268 0 .23 0 .46.006.696.013.324.031.653.05.982" transform="translate(-372 -686) translate(372 686) matrix(1 0 0 -1 0 72.477)"/>
                <path fill-rule="nonzero" d="M50.645 34.915c-.025-.268-.037-.305-.13-.56.267-.174.522-.36 1.175-.36.142 0 .534 0 .907.217.198.119.684.485.69 1.175 0 .305-.106.628-.317.827-.28.273-.79.398-1.131.54-.311.125-.46.237-.56.367-.044.056-.143.205-.143.41 0 .255.187.715.808.715.417 0 .628-.18.728-.304.068-.081.155-.224.16-.236l.082-.007c.069.292.106.373.174.522-.23.125-.404.212-.653.255-.149.025-.317.025-.36.025-.603 0-.908-.168-1.107-.354-.341-.317-.385-.696-.385-.877 0-.391.193-.714.516-.913.143-.087.373-.193.733-.33.224-.087.448-.149.634-.316.237-.205.262-.454.262-.579 0-.292-.162-.864-.914-.87-.193 0-.336.037-.405.062-.304.093-.447.268-.528.367-.056.068-.105.143-.161.224h-.075z" transform="translate(-372 -686) translate(372 686) matrix(1 0 0 -1 0 72.496)"/>
                <path fill-rule="nonzero" d="M57.079 38.414c-.093-.075-.193-.137-.287-.205-.105-.062-.21-.13-.316-.193l-.908-.447-.485-.187.298-.28c.106.075.212.143.318.212.26.168.534.323.814.472l.019-.888c0-.51-.013-1.02-.013-1.53 0-.777.025-.839-.05-1.317.044 0 .2.03.342.03.112 0 .23-.018.336-.036-.012.31-.019.627-.025.938-.006.479-.013.951-.013 1.43 0 .391 0 .777.007 1.162.006.267.019.528.037.79l-.074.049z" transform="translate(-372 -686) translate(372 686) matrix(1 0 0 -1 0 72.459)"/>
                <path d="M58.967 37.5c.02.46.218.64.404.715.032.006.13.044.243.044.199 0 .317-.087.379-.137.211-.168.255-.392.255-.659.006-.416-.18-.621-.33-.708-.093-.056-.211-.094-.323-.094-.149 0-.274.05-.385.15-.267.236-.249.584-.243.69m-.167-2.058c0 .094.012.647.39.883.138.087.293.118.46.118.156 0 .25-.031.306-.056.13-.062.211-.15.242-.193.118-.13.255-.373.255-.789 0-.54-.224-.858-.404-.982-.161-.112-.336-.125-.41-.125-.255 0-.43.118-.504.181-.105.093-.155.174-.187.224-.118.21-.155.497-.148.74m.403 1.137c-.255-.087-.373-.137-.49-.206-.516-.304-.547-.814-.547-1.019 0-.59.323-1.038.876-1.212.236-.074.46-.074.553-.074.193 0 .796.018 1.193.484.2.237.318.554.318.877 0 .087-.007.286-.106.504-.08.192-.242.44-.703.584-.074.024-.161.05-.242.068.31.13.553.236.709.565.075.162.086.311.086.38 0 .137-.024.248-.074.366-.025.056-.08.18-.205.292-.237.212-.634.286-.945.286-.64 0-.945-.248-1.1-.49-.137-.206-.155-.41-.155-.504 0-.18.055-.323.086-.386.193-.422.61-.484.746-.515" transform="translate(-372 -686) translate(372 686) matrix(1 0 0 -1 0 72.546)"/>
                <path d="M62 35.742c.261.391.522.789.79 1.18.211.305.429.603.652.901v-2.081H62zm1.964.012c0 .36 0 .721.007 1.081 0 .535.012 1.063.024 1.598-.123-.013-.192-.019-.254-.019-.075 0-.15.006-.224.012L61.515 35.5v-.174h1.915v-.472c-.007-.243-.019-.485-.031-.728.112.013.18.025.298.025.106 0 .137-.006.304-.025-.006.187-.018.38-.024.572-.006.205-.006.417-.013.628.112 0 .224.006.336.006.143 0 .212-.03.274-.056-.02.143-.025.174-.025.255 0 .075.006.15.018.224h-.603z" transform="translate(-372 -686) translate(372 686) matrix(1 0 0 -1 0 72.558)"/>
                <path fill-rule="nonzero" d="M65.082 34.846c.007-.211 0-.267-.074-.472.41-.212.572-.267 1.013-.267.23 0 .367.018.472.043.672.149 1.206.684 1.206 1.417 0 .734-.522 1.02-.77 1.113-.218.08-.41.087-.491.087-.342 0-.69-.137-.777-.168v1.349c.248.006.497.018.746.025.36.006.72-.007 1.074-.02-.006.082-.018.181-.018.262 0 .08.007.124.031.274-.491-.032-.982-.063-1.48-.063-.248 0-.496.013-.739.031l.056-.422c.019-.317.044-.64.044-.958 0-.273-.019-.54-.031-.814l.092-.05c.225.15.392.256.672.256.373 0 .708-.225.852-.585.068-.174.074-.335.074-.404 0-.168-.05-.808-.59-1.044-.174-.075-.336-.08-.41-.08-.125 0-.436.024-.69.266-.106.1-.187.218-.218.255l-.044-.03z" transform="translate(-372 -686) translate(372 686) matrix(1 0 0 -1 0 72.595)"/>
                <path fill-rule="nonzero" d="M10.5 31.7c-.18-.354-.355-.714-.541-1.068-.186-.36-.373-.714-.56-1.075-.148-.286-.291-.578-.447-.858-.08-.15-.168-.286-.255-.429-.193.33-.391.665-.578 1-.211.38-.416.759-.627 1.144-.137.255-.287.51-.423.771-.087.168-.174.348-.249.522-.136-.018-.168-.006-.248 0-.15-1.218-.293-2.442-.504-3.642-.05-.267-.1-.522-.155-.79.13.026.161.026.236.026.13 0 .242-.032.286-.044.018.336.031.678.062 1.013.025.354.062.703.106 1.057.037.398.08.795.124 1.193.224-.41.454-.826.684-1.237.192-.348.397-.702.578-1.056.168-.323.31-.647.454-.976h.186c.05.137.1.273.155.404.063.137.125.267.193.404.41.839.845 1.678 1.28 2.517.087-.646.174-1.293.237-1.94.043-.46.074-.913.099-1.373.187.031.242.038.348.038.112 0 .2-.013.41-.057-.03.15-.068.3-.093.448-.037.224-.056.454-.093.678-.031.254-.075.51-.106.764-.056.41-.105.827-.161 1.237-.032.267-.075.534-.106.802-.019.173-.031.354-.044.528H10.5z" transform="translate(-372 -686) translate(372 686) matrix(1 0 0 -1 0 58.952)"/>
                <path d="M12.818 29.27c.118.286.23.566.354.852.106.249.23.491.348.733l.709-1.585h-1.411zm.727 2.43c-.1-.254-.205-.503-.317-.751-.15-.342-.304-.678-.454-1.02-.205-.466-.404-.932-.609-1.398-.192-.41-.391-.82-.59-1.224.124.012.205.018.26.018.082 0 .131-.006.274-.031.162.566.211.74.578 1.653.305.013.603.025.908.025.254 0 .51-.006.764-.012.417-.926.473-1.113.653-1.678.205.037.298.05.398.05.118 0 .199-.013.41-.044-.106.199-.211.398-.31.609-.119.255-.225.522-.336.783-.143.33-.293.653-.442.988-.13.293-.255.597-.391.89-.1.21-.205.416-.299.62-.074.168-.143.343-.205.516l-.292.007z" transform="translate(-372 -686) translate(372 686) matrix(1 0 0 -1 0 58.983)"/>
                <path d="M16.471 31.7l-.814-.988h.23l.721.585.728-.578h.192l-.727.982h-.33zm.523-1.317c-.131-.013-.224-.025-.361-.025-.112 0-.174.006-.367.031.013-.137.025-.28.031-.422.026-.354.032-.721.032-1.082 0-.236-.006-.466-.006-.696 0-.379 0-.758-.007-1.137 0-.355-.019-.702-.043-1.05.198.024.26.03.373.03.124 0 .248-.012.372-.024-.018.18-.037.36-.05.547-.018.291-.018.584-.018.882-.006.423-.012.845-.012 1.268 0 .23 0 .46.006.696.012.323.03.653.05.982" transform="translate(-372 -686) translate(372 686) matrix(1 0 0 -1 0 57.702)"/>
                <path fill-rule="nonzero" d="M20.939 31.694c-.18-.018-.36-.037-.54-.05-.23-.012-.46-.018-.69-.018-.3-.006-.597-.006-.896-.006-.23 0-.46 0-.69.012-.217.013-.435.03-.652.05.024-.124.03-.168.03-.237 0-.056-.012-.142-.018-.198.205.018.41.037.61.05.273.012.54.012.814.012.006-.61.012-1.212.012-1.821-.006-.727-.025-1.454-.05-2.176.18.019.218.025.323.025.112 0 .18-.006.392-.037-.012.248-.031.491-.037.74-.019.379-.013.764-.006 1.143 0 .38-.007.765-.007 1.144 0 .33.013.653.019.982.218 0 .435-.006.646-.006.398-.007.485-.013.721-.063-.025.119-.03.15-.03.212 0 .1.036.217.049.242" transform="translate(-372 -686) translate(372 686) matrix(1 0 0 -1 0 58.995)"/>
                <path d="M22.069 31.397c.155.012.305.024.46.024.149 0 .317-.012.454-.05.205-.055.596-.223.596-.789 0-.578-.422-.783-.609-.851-.341-.118-.858-.087-.92-.087-.006.267-.006.534-.006.795 0 .324.012.64.025.958m-.672.304l.038-.572c.019-.348.019-.696.019-1.044v-.54c-.007-.386-.007-.765-.02-1.144-.005-.36-.037-.721-.074-1.088.118.012.236.025.355.025.143 0 .242-.013.379-.031-.013.155-.025.31-.031.472-.007.18-.007.36-.007.547 0 .367 0 .74-.006 1.107l.143.024c.311-.385.622-.77.92-1.162.242-.323.473-.653.702-.988.143.018.28.03.423.03.15 0 .292-.018.441-.03l.007.068c-.293.33-.585.665-.858 1.007-.299.36-.578.733-.864 1.107.354.074.677.136.938.39.299.293.342.629.349.778 0 .205-.075.416-.193.584-.261.373-.69.404-.84.417-.074.006-.155.012-.23.012H21.79l-.392.03z" transform="translate(-372 -686) translate(372 686) matrix(1 0 0 -1 0 59.008)"/>
                <path fill-rule="nonzero" d="M25.931 31.372c.237 0 .473.006.71.006.316-.006.633-.031.95-.062-.025.18-.019.23.031.404-.479-.025-.95-.056-1.436-.056-.304 0-.615.018-.92.037.063-.429.038-.522.044-.777.006-.248.012-.491.012-.734 0-.46-.006-.913-.012-1.366 0-.181 0-.361-.006-.541 0-.143.006-.292 0-.436-.007-.174-.025-.335-.038-.503.317.012.628.019.945.019.491 0 .976-.019 1.46-.044-.018.118-.024.137-.024.205 0 .081.012.15.019.18-.187-.006-.367-.018-.554-.024-.398-.013-.79-.013-1.187-.013v1.834c.124.012.255.019.386.019.118 0 .236-.007.354-.007.168-.006.33-.006.49-.018.1-.006.2-.02.306-.038-.02.18-.02.23.012.404-.143-.012-.292-.037-.435-.043-.1-.006-.193-.006-.292-.006-.268 0-.541 0-.808-.007l-.007 1.567z" transform="translate(-372 -686) translate(372 686) matrix(1 0 0 -1 0 59.039)"/>
                <path fill-rule="nonzero" d="M33.45 30.812c.024.286.043.342.13.609-.286.112-.796.323-1.56.323-.883 0-1.79-.323-2.207-1.162-.224-.454-.236-.92-.236-1.1 0-.771.267-1.256.454-1.486.28-.354.857-.808 1.895-.808.597 0 1.039.155 1.243.249.143.068.324.186.355.205.012.211.012.236.068.441l-.087.05c-.323-.28-.54-.472-.951-.578-.217-.056-.41-.062-.491-.062-.82 0-1.237.447-1.417.72-.336.504-.348 1.132-.348 1.325 0 .838.33 1.298.584 1.535.423.385.858.404 1.076.404.59 0 .926-.2 1.118-.36.112-.088.212-.2.299-.305h.074z" transform="translate(-372 -686) translate(372 686) matrix(1 0 0 -1 0 58.932)"/>
                <path fill-rule="nonzero" d="M37.374 27.94c0-.267-.006-.385-.05-.64.125.019.224.037.355.037.112 0 .18-.006.379-.037-.012.187-.031.373-.037.56-.025.366-.031.733-.031 1.106 0 .417.006.827.018 1.243.006.298 0 .603.013.901.006.193.025.385.05.578-.2-.024-.28-.031-.38-.031-.124 0-.236.013-.354.019.012-.205.025-.41.03-.616.02-.41.014-.82.014-1.23-.405-.012-.809-.02-1.213-.02-.422 0-.845.014-1.268.026-.006.286-.012.566-.006.851.006.324.031.647.062.97-.118-.006-.23-.018-.341-.018-.143 0-.243.018-.392.037.019-.2.044-.404.05-.603.012-.199.012-.404.012-.603v-1.162c0-.392 0-.783-.012-1.169-.013-.28-.031-.559-.056-.839.193.031.249.037.354.037.13 0 .236-.018.367-.037-.019.298-.038.597-.044.895-.012.423 0 .846.006 1.268.436.013.877.019 1.312.013.391 0 .777-.02 1.162-.031V27.94z" transform="translate(-372 -686) translate(372 686) matrix(1 0 0 -1 0 58.989)"/>
                <path d="M39.668 29.47c-.019.69.124 1.305.696 1.74.398.298.764.323.951.323.168 0 .367-.03.404-.037.1-.019.38-.075.622-.249.168-.118.292-.28.335-.335.38-.516.386-1.094.386-1.306 0-.82-.218-1.255-.454-1.535-.435-.516-1-.572-1.237-.572-.255 0-.895.062-1.33.665-.18.25-.36.622-.373 1.306m-.715.118c-.013-.815.299-1.33.491-1.56.143-.175.293-.293.36-.336.46-.342 1.002-.448 1.555-.448.335 0 1.075.019 1.734.634.485.46.684 1.013.684 1.69 0 .908-.361 1.362-.647 1.623-.64.578-1.517.597-1.784.597-.988 0-1.541-.41-1.833-.715-.224-.236-.547-.684-.56-1.485" transform="translate(-372 -686) translate(372 686) matrix(1 0 0 -1 0 59.032)"/>
                <path fill-rule="nonzero" d="M48.385 30.812c.025.286.043.342.13.609-.285.112-.795.323-1.56.323-.882 0-1.79-.323-2.206-1.162-.224-.454-.236-.92-.236-1.1 0-.771.267-1.256.453-1.486.28-.354.858-.808 1.896-.808.597 0 1.038.155 1.243.249.143.068.323.186.355.205.012.211.012.236.068.441l-.087.05c-.324-.28-.541-.472-.951-.578-.218-.056-.41-.062-.491-.062-.82 0-1.237.447-1.417.72-.336.504-.349 1.132-.349 1.325 0 .838.33 1.298.585 1.535.422.385.858.404 1.075.404.59 0 .926-.2 1.119-.36.112-.088.211-.2.298-.305h.075z" transform="translate(-372 -686) translate(372 686) matrix(1 0 0 -1 0 58.932)"/>
                <path d="M49.712 29.47c-.019.69.124 1.305.696 1.74.398.298.764.323.95.323.169 0 .368-.03.405-.037.1-.019.38-.075.621-.249.168-.118.292-.28.336-.335.38-.516.385-1.094.385-1.306 0-.82-.217-1.255-.453-1.535-.435-.516-1-.572-1.237-.572-.255 0-.895.062-1.33.665-.18.25-.36.622-.373 1.306m-.715.118c-.012-.815.298-1.33.49-1.56.144-.175.293-.293.362-.336.46-.342 1-.448 1.553-.448.336 0 1.076.019 1.735.634.484.46.683 1.013.683 1.69 0 .908-.36 1.362-.646 1.623-.64.578-1.517.597-1.784.597-.988 0-1.541-.41-1.834-.715-.224-.236-.547-.684-.56-1.485" transform="translate(-372 -686) translate(372 686) matrix(1 0 0 -1 0 59.032)"/>
                <path fill-rule="nonzero" d="M55.383 30.128c.006.255 0 .51.006.765 0 .273.019.54.05.814-.18-.025-.286-.037-.367-.037-.137 0-.335.025-.348.025.018-.721.044-1.448.044-2.175 0-.312-.007-.622-.013-.933 0-.249 0-.497-.006-.746-.007-.18-.025-.36-.044-.54.398.024.79.05 1.188.05.429 0 .851-.02 1.28-.038-.018.236-.006.286.006.422-.584-.062-.77-.087-1.777-.074-.013.516-.02 1.025-.02 1.547v.92z" transform="translate(-372 -686) translate(372 686) matrix(1 0 0 -1 0 59.007)"/>
                <path d="M58.568 29.27c.118.286.23.566.354.852.106.249.23.491.348.733l.708-1.585h-1.41zm.727 2.43c-.1-.254-.205-.503-.317-.751-.149-.342-.304-.678-.453-1.02-.206-.466-.405-.932-.61-1.398-.192-.41-.39-.82-.59-1.224.124.012.205.018.26.018.082 0 .131-.006.275-.031.16.566.21.74.577 1.653.305.013.603.025.908.025.255 0 .51-.006.764-.012.417-.926.473-1.113.653-1.678.205.037.298.05.397.05.12 0 .2-.013.41-.044-.104.199-.21.398-.31.609-.118.255-.224.522-.335.783-.144.33-.293.653-.442.988-.13.293-.254.597-.391.89-.1.21-.205.416-.299.62-.074.168-.143.343-.205.516l-.292.007z" transform="translate(-372 -686) translate(372 686) matrix(1 0 0 -1 0 58.983)"/>
                <path fill-rule="nonzero" d="M64.39 31.694c-.18-.018-.36-.037-.54-.05-.23-.012-.46-.018-.69-.018-.298-.006-.597-.006-.895-.006-.23 0-.46 0-.69.012-.217.013-.435.03-.653.05.025-.124.032-.168.032-.237 0-.056-.013-.142-.019-.198.205.018.41.037.609.05.273.012.54.012.814.012.006-.61.013-1.212.013-1.821-.007-.727-.025-1.454-.05-2.176.18.019.217.025.323.025.112 0 .18-.006.391-.037-.013.248-.03.491-.037.74-.018.379-.013.764-.007 1.143 0 .38-.006.765-.006 1.144 0 .33.013.653.02.982.217 0 .434-.006.646-.006.397-.007.484-.013.72-.063-.024.119-.03.15-.03.212 0 .1.037.217.05.242" transform="translate(-372 -686) translate(372 686) matrix(1 0 0 -1 0 58.995)"/>
                <path fill-rule="nonzero" d="M65.564 31.695c-.13-.013-.224-.025-.36-.025-.113 0-.174.006-.367.03.012-.136.025-.279.03-.421.026-.355.032-.722.032-1.082 0-.236-.006-.466-.006-.696 0-.38 0-.758-.006-1.138 0-.354-.02-.702-.044-1.05.199.025.26.03.373.03.124 0 .248-.012.373-.024-.019.18-.037.36-.05.547-.018.292-.018.584-.018.883-.007.422-.013.845-.013 1.267 0 .23 0 .46.006.697.013.323.031.652.05.982" transform="translate(-372 -686) translate(372 686) matrix(1 0 0 -1 0 59.014)"/>
                <path fill-rule="nonzero" d="M67.44 31.372c.236 0 .472.006.708.006.317-.006.634-.031.951-.062-.025.18-.019.23.031.404-.478-.025-.95-.056-1.435-.056-.305 0-.616.018-.92.037.062-.429.036-.522.043-.777.007-.248.012-.491.012-.734 0-.46-.005-.913-.012-1.366 0-.181 0-.361-.007-.541 0-.143.007-.292 0-.436-.005-.174-.024-.335-.037-.503.317.012.628.019.944.019.492 0 .977-.019 1.462-.044-.019.118-.025.137-.025.205 0 .081.013.15.019.18-.186-.006-.368-.018-.554-.024-.397-.013-.788-.013-1.186-.013v1.834c.124.012.254.019.384.019.119 0 .236-.007.354-.007.169-.006.33-.006.491-.018.1-.006.2-.02.306-.038-.019.18-.019.23.012.404-.143-.012-.292-.037-.436-.043-.099-.006-.191-.006-.291-.006-.268 0-.54 0-.808-.007l-.006 1.567z" transform="translate(-372 -686) translate(372 686) matrix(1 0 0 -1 0 59.039)"/>
                <path d="M70.643 31.397c.155.012.305.024.46.024.149 0 .317-.012.454-.05.205-.055.596-.223.596-.789 0-.578-.422-.783-.609-.851-.341-.118-.858-.087-.92-.087-.006.267-.006.534-.006.795 0 .324.013.64.025.958m-.671.304l.037-.572c.019-.348.019-.696.019-1.044v-.54c-.007-.386-.007-.765-.02-1.144-.005-.36-.036-.721-.074-1.088.119.012.237.025.355.025.142 0 .242-.013.379-.031-.013.155-.025.31-.03.472-.007.18-.007.36-.007.547 0 .367 0 .74-.007 1.107l.143.024c.311-.385.622-.77.92-1.162.242-.323.473-.653.702-.988.144.018.28.03.423.03.15 0 .293-.018.441-.03l.007.068c-.292.33-.584.665-.858 1.007-.298.36-.578.733-.864 1.107.354.074.678.136.939.39.298.293.341.629.348.778 0 .205-.074.416-.193.584-.26.373-.69.404-.839.417-.075.006-.156.012-.23.012h-1.2l-.391.03z" transform="translate(-372 -686) translate(372 686) matrix(1 0 0 -1 0 59.008)"/>
                <path fill-rule="nonzero" d="M75.084 28.183c-.024-.267-.037-.305-.13-.56.267-.173.522-.36 1.175-.36.143 0 .534 0 .907.217.198.119.683.485.69 1.175 0 .305-.106.628-.317.827-.28.274-.79.398-1.131.54-.31.125-.46.237-.56.367-.043.056-.143.205-.143.41 0 .256.187.715.809.715.416 0 .627-.18.727-.304.068-.081.155-.224.161-.236l.08-.006c.07.291.107.372.175.522-.23.124-.405.21-.653.254-.148.025-.317.025-.36.025-.603 0-.908-.168-1.106-.354-.342-.317-.386-.696-.386-.876 0-.392.193-.715.516-.914.143-.087.373-.193.734-.33.223-.086.447-.148.634-.317.236-.205.26-.453.26-.577 0-.293-.162-.864-.913-.87-.193 0-.336.037-.404.062-.304.093-.447.267-.529.366-.056.069-.105.143-.161.224h-.075z" transform="translate(-372 -686) translate(372 686) matrix(1 0 0 -1 0 59.032)"/>
                <path fill-rule="nonzero" d="M81.847 31.452c.018-.472.043-.944.043-1.417 0-.323-.013-.64-.018-.957-.025-.305-.05-.447-.1-.584-.106-.299-.442-.84-1.256-.84-.777 0-1.088.48-1.187.784-.099.28-.112.659-.118.733-.007.485-.019.97-.007 1.448.007.386.032.777.063 1.163-.118-.006-.236-.013-.348-.013-.131 0-.255.013-.38.019.013-.274.031-.547.038-.827.012-.255.006-.503.006-.758 0-.41 0-.82-.006-1.23.024-.417.05-.579.136-.778.032-.068.094-.21.224-.354.479-.522 1.287-.528 1.449-.528.715 0 1.087.205 1.336.422.168.15.404.43.497.97.019.118.025.237.037.355.007.192.007.391.013.583.006.398.006.802.025 1.2.012.317.043.628.074.939-.093-.006-.186-.013-.28-.013-.093 0-.186.007-.279.019l.038-.336z" transform="translate(-372 -686) translate(372 686) matrix(1 0 0 -1 0 59.1)"/>
                <path fill-rule="nonzero" d="M84.036 31.695c-.13-.013-.224-.025-.36-.025-.112 0-.174.006-.367.03.013-.136.025-.279.031-.421.025-.355.031-.722.031-1.082 0-.236-.006-.466-.006-.696 0-.38 0-.758-.006-1.138 0-.354-.019-.702-.044-1.05.2.025.261.03.373.03.124 0 .25-.012.373-.024-.019.18-.037.36-.05.547-.018.292-.018.584-.018.883-.006.422-.013.845-.013 1.267 0 .23 0 .46.007.697.012.323.03.652.05.982" transform="translate(-372 -686) translate(372 686) matrix(1 0 0 -1 0 59.014)"/>
                <path fill-rule="nonzero" d="M84.967 28.183c-.024-.267-.037-.305-.13-.56.267-.173.522-.36 1.175-.36.143 0 .534 0 .907.217.2.119.684.485.69 1.175 0 .305-.106.628-.317.827-.28.274-.79.398-1.131.54-.31.125-.46.237-.56.367-.043.056-.143.205-.143.41 0 .256.187.715.808.715.417 0 .628-.18.728-.304.069-.081.155-.224.161-.236l.081-.006c.069.291.106.372.174.522-.23.124-.404.21-.652.254-.15.025-.317.025-.36.025-.604 0-.908-.168-1.107-.354-.342-.317-.386-.696-.386-.876 0-.392.193-.715.516-.914.143-.087.373-.193.734-.33.224-.086.447-.148.634-.317.236-.205.26-.453.26-.577 0-.293-.16-.864-.913-.87-.193 0-.336.037-.404.062-.305.093-.447.267-.528.366-.056.069-.106.143-.162.224h-.075z" transform="translate(-372 -686) translate(372 686) matrix(1 0 0 -1 0 59.032)"/>
                <path fill-rule="nonzero" d="M88.174 28.183c-.025-.267-.038-.305-.13-.56.267-.173.522-.36 1.174-.36.143 0 .535 0 .908.217.199.119.684.485.69 1.175 0 .305-.106.628-.317.827-.28.274-.79.398-1.131.54-.311.125-.46.237-.56.367-.043.056-.143.205-.143.41 0 .256.187.715.808.715.417 0 .628-.18.727-.304.069-.081.156-.224.162-.236l.08-.006c.07.291.107.372.175.522-.23.124-.404.21-.653.254-.149.025-.317.025-.36.025-.603 0-.908-.168-1.107-.354-.342-.317-.385-.696-.385-.876 0-.392.193-.715.515-.914.144-.087.374-.193.734-.33.224-.086.447-.148.634-.317.236-.205.261-.453.261-.577 0-.293-.161-.864-.914-.87-.192 0-.335.037-.404.062-.304.093-.447.267-.528.366-.056.069-.105.143-.161.224h-.075z" transform="translate(-372 -686) translate(372 686) matrix(1 0 0 -1 0 59.032)"/>
                <path fill-rule="nonzero" d="M92.325 31.372c.237 0 .473.006.709.006.317-.006.634-.031.95-.062-.024.18-.018.23.032.404-.478-.025-.951-.056-1.436-.056-.305 0-.616.018-.92.037.062-.429.037-.522.044-.777.006-.248.012-.491.012-.734 0-.46-.006-.913-.012-1.366 0-.181 0-.361-.007-.541 0-.143.007-.292 0-.436-.006-.174-.025-.335-.037-.503.317.012.628.019.945.019.49 0 .975-.019 1.461-.044-.019.118-.025.137-.025.205 0 .081.012.15.019.18-.187-.006-.367-.018-.554-.024-.398-.013-.79-.013-1.187-.013v1.834c.124.012.255.019.386.019.118 0 .235-.007.354-.007.168-.006.33-.006.49-.018.1-.006.2-.02.305-.038-.018.18-.018.23.013.404-.143-.012-.292-.037-.436-.043-.099-.006-.192-.006-.292-.006-.267 0-.54 0-.807-.007l-.007 1.567z" transform="translate(-372 -686) translate(372 686) matrix(1 0 0 -1 0 59.039)"/>
                <path fill-rule="nonzero" d="M0.008 22.341L99.992 22.341 99.992 23.442 0.008 23.442z" transform="translate(-372 -686) translate(372 686)"/>
                <path fill-rule="nonzero" d="M82.865 18.792c-.08-.02-.163-.05-.204-.127.055-.05.085-.119.078-.193-.011-.11-.092-.189-.133-.285-.352-.853-.332-1.68.107-2.49.055-.033.107-.084.122-.147.144-.093.251-.281.127-.439-.02.078-.065.147-.116.206-.199-.163-.181-.155-.424-.086-.043.012-.083-.04-.107-.07-.308-.4-.807-1.59-.632-2.094.037-.11.096-.158.096-.29.089-.13.091-.358-.035-.468-.014.097-.029.195-.08.28-.393-.22-.375.12-.505.233-.4.05-.865-.065-1.181-.317-.239-.189-.316-.354-.454-.478-.072-.066-.155.076-.206.112-.165.125-.768.397-.959.283-.093-.192.438-.525.53-.645.048-.062-.059-.15-.097-.193-.074-.08-.221-.166-.32-.215.04-.256.255-.404.33-.628-.046-.145-.191-.222-.298-.317.024-.18.149-.323.272-.448.018-.124-.11-.202-.12-.28-.013-.102.226-.322.297-.388.007-.044-.018-.136.007-.17.121-.164.425-.067.513-.253.198-.056.435-.053.598.086-.108.07-.224.127-.297.237-.207.076-.342.185-.426.389-.055.131-.168.186-.19.345-.019.122 0 .214.008.333.012.145-.098.287-.022.432.052.099.169.151.22.24.04.07.018.157.08.225.1.109.279.069.379.17.063.065.116.15.222.133.137-.022.287-.154.432-.07.076.043.137.11.23.053.136-.081.152-.276.31-.34.12-.047.312.067.346-.122.027-.153-.06-.441.13-.522.066-.029.177-.005.19-.11.017-.146-.155-.42-.106-.548.035-.097.198-.174.137-.296-.067-.138-.2-.214-.248-.382.302-.219.573-.376.591-.798.038.016.1.187.288.167.069-.008.266-.135.245-.213-.01-.037-.047-.018-.07-.018-.247.005-.418-1.054-1.429-.82-.032.008-.07.022-.083.056.127.103.357.192.325.393-.017.113-.157.179-.123.305.047.165.337.14.363-.099.13.249-.158.392-.35.449-.234-.088-.27-.4-.283-.416-.12-.145-.349-.203-.514-.27-.092-.036-.047-.16-.142-.192-.208-.07-.618-.069-.82-.073-.04-.038-.06-.093-.107-.123-.263-.004-.618.147-.856.245-.059-.025-.098-.08-.15-.12-.174.01-.566.335-.706.453-.053 0-.128-.065-.177-.033-.103.066-.347.51-.417.635-.05-.001-.097-.025-.146-.013-.069.108-.105.5-.122.604-.018.113-.108.106-.204.123-.196 1.051-.44 1.224-.536-.02l-.065-.003c-.307.257-.353-.068-.42-.325-.057-.054-.096.049-.144.07-.184.08-.189-.216-.201-.32-.219.009-.482-.648-.272-.765.072-.038.166-.053.224-.112.12-.007.346-.025.333-.2-.004-.034-.004-.077-.033-.1-.248.355-.296-.248-.687-.119-.418.136.045.641-.627.283-.024-.256-.32-.513-.51-.246-.125-.028-.135-.13-.127-.236-.204.173-.081.286.026.439.047.066.051.13.122.188-.203.19-.757-.381-.71.373-.075.047-.19.07-.264.01.066.226.263.257.441.136.076 0 .15-.02.224-.03-.097.15-.142.438.09.492.044.091-.056.192-.133.223-.002.09.232.018.282-.043.104-.13.17-.795.613-.532.111.066.274.512.277.646.012.653-.189 1.503.104 2.093.038.074-.401.192-.439.271-.085.183-.365-.1-.444-.16l-.04.014c-.058.127-.05.267-.099.387-.044.109-.503.115-.608.093-.002.22.301.42-.33.4-.042.151-.254.482-.45.373-.17-.5.347-.602.023-.822.003.43-.3.008-.53.328-.232.32.214.371.073.683-.049.026-.104.045-.16.041-.273-.193-.626-.113-.574.273-.072.077-.139.006-.21.02-.104.02.09.27.35.177.066.024.138.017.205-.004-.006.064-.044.228-.093.274-.243.235-.225.514.146.59.07.105.001.19-.08.255.062.034.148.008.2-.03.13-.091.085-.24.084-.365 0-.053.063-.199.088-.25.049.212.263.489.464.228.116.011.122.1.122.196.026.01.04-.012.052-.03.101-.156.057-.34-.109-.43-.004-.081-.046-.157-.08-.229.053-.105.02-.253.156-.297.139-.046.574-.202.696-.204l.06.003c.112.018.235.07.349.097.28.065.567.107.853.13l.362.028c.023.056-.018.058.002.115-.045.024-.209.067-.213.1-.04.308.163.656.161.71 0 .036-.057.035-.051.073.045.281.59.476.72.618.023.026-.025.064.01.097.107.101.777.218.814.25.026.022.017.073.025.103.199.142.61.025.77.306.18.318-.447.414-.712.335-.076-.023-.176-.095-.258-.076-.21.048-.811.243-.917-.087-.029-.088.074-.133.054-.216l-.047-.047c-.263-.03-.636.302-.911-.06-.102.096-.21.209-.359.21-.451.005-1.426-.228-1.76.08-.024.021-.06.083-.055.116.025.162.642.012.668.113.006.021-.025.048-.041.054-.378.128-1.04.388-1.412.422-.168.014-.338.001-.491-.07.001.14.4.537-.184.701.07.072.178.053.268.04.806-.12 1.552-1.019 2.374-.97.125.006.836.155.849.221.004.023-.023.034-.04.039-.141.036-.489-.058-.573-.031-.098.031-.185.09-.28.122-.108.037-.201-.167-.276-.03-.112.207-.266.242-.443.062l-.047.008c-.055.085-.01.214-.126.257-.165.06-.269-.158-.333-.017.066.226-.205.32-.11.588.17.481.7.027.8.017.206-.02.412-.033.617-.05.393.454.473.177.786.23.386.067.526.048.895-.15.213-.115.341-.25.6-.146.09.036.19.128.291.076.05-.027.08-.092.145-.06.135.066.229.199.356.27.17.096.183-.243.294-.276.156-.046.325.287.406.365.147.142.343-.346.43-.418.164-.026.219.223.313.245.19.046.287-.481.337-.588.077-.171.23.122.338.046.176-.122.037-.607.049-.777.009-.127.213-.043.239-.173.027-.142-.198-.429-.259-.529-.05-.081.1-.162.133-.21.045-.067-.047-.154-.091-.199-.094-.094-.218-.157-.317-.246-.101-.092.07-.169.026-.232-.05-.075-.873-.588-.49-.758.26.054.902.467 1.06.679.068.09.377 1.489.428 1.695-.124.16-.208.795.098.8-.03-.065-.084-.145-.046-.22.112.081.217.059.307-.036.792.878 1.645 1.313 2.755 1.66.052.142.083.211.242.243.086.131.3.2.424.076m-.345-.298l-.068.022c-.087-.019-.12-.123-.146-.195-1.202-.367-2.026-.848-2.852-1.805-.258.475-.417.055-.146-.213-.079-.323-.36-1.86-.516-2.008-.293-.277-.702-.413-.992-.675l.01-.05c.046-.006.103.017.145.033.28.108.737.367.963.563.259.223.422 1.402.472 1.635.04.192.084.43.209.585.68.845 1.6 1.496 2.655 1.769.119.03.362.188.266.339m-.298-.828l-.046.04c-.054-.013-.085-.082-.102-.13-.177-.459-.06-.946-.071-1.416-.002-.066-.044-.15-.114-.076-.078.081-.14.41-.158.528-.017.115-.025.812-.042.835-.249.012-.128-1.065-.14-1.214l-.047-.033c-.191.016-.249.838-.245.99l-.05.037c-.22-.032.065-1.052-.151-.867-.116.1-.188.472-.223.621-.162-.046.059-.59-.136-.571-.045.004-.076.057-.093.092-.036.074-.038.164-.09.23l-.05-.017c-.01-.07-.02-.142-.034-.213-.02-.096-.214.026-.198-.12.008-.064.595-.178.695-.208.506-.154.976-.39 1.415-.682.07-.047.154-.167.245-.146.254.058-.06.27-.09.332-.322.643-.414 1.28-.275 1.988m-10.331-.47l.048-.004c.03.052.066.109.126.129.036.012.08.012.113-.01.052-.035-.017-.126.045-.149.049-.02.196.037.278-.004.14-.068.122-.114.3-.1.083.007.129-.034.171-.096.068-.098.152-.01.233-.014.066-.003.265-.117.34-.149.284-.122.803-.12.93-.186.034-.017.043-.044.035-.083-.02-.089-.15-.16-.23-.19-.168-.06-.375-.08-.551-.11-.483-.08-.88-.334-1.39-.345-.068-.001-.144.01-.2-.04.166-.12 1.636.133 1.728.25.176.221.335-.052.49-.05.175 0-.036.17.036.246.127.13.342-.025.482.09l-.003.07c-.317.188-.181.166.019.325.15.12.147.39-.007.306-.117-.286-.76.271-.943.316-.37.09-.565-.197-.71-.217-.092-.011-.631.068-.728.1-.137.048-.317.227-.473.2-.112-.02-.254-.188-.14-.286m3.86-.084c.212-.142.377-.327.437-.532.026-.086-.005-.178.036-.262l.068.019c.264.318-.008.76-.54.775m.694.04c.434-.392.167-.556.11-.875.425-.08.587.808-.11.875m.67-.116c.151-.297.133-.593-.11-.853-.026-.029-.15-.119-.124-.154.125-.175.568.29.599.443.05.24-.098.453-.366.564m-1.67-.083l-.056-.007c-.03-.124.344-.603.433-.481.091.123-.275.444-.378.488m2.328-.194c-.006-.127.002-.256-.02-.382-.22-1.382-2.715-1.152-2.951-2.397.046.025.088.048.141.04-.024-.319-.23-.471-.067-.838.065.14.12.29.245.39l.05-.014c-.022-.137-.178-.69-.06-.778.067.1.129.29.266.313l.032-.056-.097-.437c-.054-.234-.034-.48-.08-.71-.047-.226-.156-.467-.22-.692-.14-.494-.226-.988-.268-1.5-.018-.205-.005-.432-.035-.634-.012-.07-.302-.7-.35-.748-.208-.203-.581-.114-.826-.06l-.004-.053c.1-.024.208-.045.303-.08.107-.038-.03-.088.008-.166.102.046.493.27.61.206.07-.04.089-.14.193-.106.015.138-.074.272-.03.408.033.096.247.456.25.505.011.215.015.427.032.643.004.042.025.19.055.215.05.044.066-.067.126-.049l.035.057c.002.157-.053.541.046.664.01.012.05.025.065.017.117-.07.145-.33.21-.326.021.001.04.06.041.076.037.232-.066.482-.012.715.014.065.062.165.139.173.073.008.078-.094.148-.084.064.127-.098 1.002.153 1.111l.041-.04c.02-.146.022-.56.152-.638.03.097.114.481.245.48l.026-.051c-.022-.146-.099-.901.033-.954.038.159.079.327.141.479.148.357.46.652.784.854.069.044.179.084.237.133.014.012.027.032.039.046-.273.243-.866-.213-1.108-.219.062.26.599.527.827.638l.003.043c-.356.115-.814-.11-1.115-.279-.015-.008-.05-.01-.06.007-.112.171.847.602.884.698-.408.041-.7-.09-1.063-.246-.031-.014-.057.006-.064.04.241.264.56.44.888.571-.208.1-.837-.078-1.03-.202h-.052l-.01.043c.267.315.651.44 1.014.605-.296-.01-.595-.032-.88-.12-.075-.023-.146-.058-.224-.073l-.026.043c.422.385.858.33 1.29.579-.403-.021-.806-.047-1.206-.103.226.3 2.331.55 2.29 1.03-.357-.319-1.164-.471-1.634-.518 0 0 1.778.553 1.631 1.356-.024.136-.082.276-.181.375m-2.324-.298c-.059.083-.387.282-.36.066.029-.217.49-.253.36-.066m4.679-.56c-.096.145-.218-.21-.227-.272-.014-.121.563-.96.663-1.123.297-.49.611-.948.772-1.503.023-.079.015-.285.132-.285.047 0 .096.029.113.072.041.104-.048.162-.086.24-.061.12-.032.535-.017.678.056.53.318.969.572 1.423.01.019.034.07.006.086-.025.015-.1-.05-.116-.066-.345-.35-.474-.96-.672-1.2-.072-.002-.09.064-.084.125.043.468.338.845.527 1.25.012.028-.022.062-.043.07-.246-.17-.518-.758-.662-1.03-.027-.05-.06-.08-.113-.04-.098.261.41.972.433 1.257-.224-.101-.582-.92-.656-.918l-.035.06c.027.35.298.703.304.96-.215-.048-.4-.792-.532-.58-.045.236.109.416.167.63.006.025.012.066-.013.084-.097.07-.375-.64-.469-.336-.026.084.041.308.036.419m-.336-1.243c-.064-.006-.086-.064-.104-.117-.096-.3.043-1.732-.093-1.794-.142-.065-.194.553-.207.644-.035.248-.034.5-.068.748l-.048-.03c-.149-.308-.006-1.266-.045-1.322-.064-.09-.76.095-1.027-.057l.006-.054c.08-.021.165 0 .245 0 .317 0 .541-.07.827-.198.028-.012.17-.082.184-.084.014-.003.032 0 .045 0 .595.52.784.55 1.548.671.005.087-.052.25-.136.289-.085.04-.165-.313-.242-.092-.015.04-.028.374-.042.461l-.056.004c-.041-.114-.059-.541-.103-.579l-.06.017c-.118.221-.114.93-.142 1.216l-.05.034c-.172-.097-.038-1.054-.103-1.247-.01-.03-.038-.048-.07-.04-.215.054-.258 1.31-.26 1.53m-.809-1.622c-.094.215-.024.49-.113.674-.02.041-.085.008-.104-.013-.129-.138-.132-.773.217-.661m-.59.013l.066.058c-.01.103.012.256-.02.352-.078.23-.381-.349-.045-.41m-6.503.677c.185-.085.219.26.153.267-.157.015-.213-.184-.153-.267m2.687-.696c-.345.008-.687-.028-1.029-.094-.128-.025-.432-.135-.541-.114-.233.045-.65.182-.87.28-.178.079-.334.25-.516.339.007-.07.05-.127.089-.179-.009-.053-.06-.07-.057-.133.11.009.312.061.324-.129.003-.052-.079-.095-.051-.144.428.138.764-.105 1.174-.261 0-.055-.077-.11-.104-.156.017-.032.057-.032.088-.026.303.066.577.465.927.353l.028-.05c-.04-.11-.158-.164-.187-.28l.04-.02c.145.034.375.212.477.219.267.02.203-.535.398-.464-.03.157-.037.36-.078.512-.033.02-.069.002-.101.02-.023.107-.007.218-.011.327m-3.154.74c-.01.075.046.286.001.296-.195.045-.25-.446 0-.296m.032-.754c.017.078-.287.261-.309.052-.01-.104.265-.255.309-.052m6.733-1.604c-.194.101-.481-.052-.65-.145-.544-.304-.75-.867-.677-1.465.007-.055.014-.108.057-.148l.054.02c.274.94.515 1.11 1.216 1.738m-6.31 1.058l-.064.018c-.144-.07.021-.435.177-.306-.035.096-.09.188-.113.288m8.194-1.262c.132-.105.274-.212.352-.365.03-.06.04-.128.107-.16.065.413-.358.63-.46.525m.605-.093c.086-.236.18-.442.193-.698.184.102.012.727-.193.698m-2.295-.4c-.949.11-1.309-1.088-1.124-1.72l.074-.024c.03.12.038.244.062.364.117.577.51.996.988 1.38m1.75-.038c-.084.496-.607.318-.582.154.296.073.333.022.582-.154m1.091.032c-.024 0-.065-.009-.078-.033-.066-.127-.066-.38-.116-.535-.026-.082-.07-.158-.087-.243l.042-.013c.266.167.227.563.239.824m-.673-1.18c.449.604-.105 1.26-.474.98-.43-.33.14-.866.474-.98m-.709 1.065c-.234.212-.678-.141-.516-.435.203.244.184.302.516.435m-.146-.382c-.188.046-.333-.42-.042-.64.037.205-.103.25.042.64m1.77-.078c-.021.066-.076-.02-.09-.04-.164-.224-.287-.475-.507-.655-.008-.006-.046-.032-.027-.046.027-.018.068-.033.098-.047.257.083.48.537.526.788m-1.357-.88c-.159.175-.19.285-.248.505-.071.268-.213-.632.248-.505m-1.688.691c-.053.036-.14.005-.197-.01-.488-.135-.79-.861-.4-1.28-.027.543.216.854.597 1.29m3.13-.419c-.076-.012-.405-.2-.453-.252.053-.024.104-.064.164-.067.12.077.2.21.288.32m-1.269-.1l-.046.006c-.014-.222.225-.476.453-.396l-.02.05c-.16.068-.288.2-.387.34m-1.78-1.246c-.127.238-.137.494-.06.74.019.06.243.397.07.378-.608-.065-.476-1.147-.01-1.118m2.223 1.042c.01-.292.778-.465.975-.745.152-.215-.012-.403 0-.615.088.053.17.12.232.203h-.064c-.033.026-.001.083.006.116.043.197-.032.375-.187.502-.255.208-.603.274-.856.489-.034.028-.055.07-.106.05m-.482-.376c.061-.168.532-.382.623-.21-.085.07-.382.144-.507.196-.03.014-.09.053-.116.014m-6.612-.388c.023.064-.04.14-.066.2-.162.363-.227-.288.066-.2m6.966-.239c-.43.164-.42.363-.598.478-.03.02-.058.02-.083-.008-.164-.186.495-.74.681-.47m-1.413-.297l.04.047c-.194.29-.218.563-.304.882-.01.038-.037.087-.085.086-.271-.005-.055-1.085.35-1.015m.253.826l-.063-.077c-.037-.368.339-.808.669-.635-.218.16-.407.37-.53.63-.017.036-.035.082-.076.082m-6.074-.63c-.061.02-.22.082-.285.079l-.018-.071c.039-.12.23-.17.311-.074l-.008.065zm1.348-.313c-.06-.197.315-.325.315-.144-.036.036-.283.174-.315.144m-.717-.1c.018.153-.268-.047-.275-.053-.09-.095.243-.194.275.053m3.925 4.367c-.194.101-.48-.052-.648-.146-.544-.303-.75-.866-.678-1.464.006-.054.014-.109.057-.148l.054.02c.273.94.515 1.11 1.215 1.738" transform="translate(-372 -686) translate(372 686) matrix(1 0 0 -1 0 26.143)"/>
                <path fill-rule="nonzero" d="M78.695 6.799c.294.097.537.32.626.631.038.093.03.22.125.279.216.105.505.09.717-.016.05-.026.114-.058.133-.118.056-.141.024-.32.034-.473.338.255.597.661.643 1.121.165-.06.29-.2.373-.361.05-.118.083-.252.102-.387.292-.067.557-.285.596-.601.01-.067.013-.158-.01-.22-.027-.02-.035.028-.054.038-.072.057-.175.092-.28.073-.295-.121-.525-.34-.801-.493-.127-.07-.25-.134-.388-.172-.234-.052-.513-.006-.675.16l-.027.045c-.221-.205-.466-.336-.736-.448-.145-.041-.289-.084-.444-.099l.005-.108c-.763-.002-.8-.868-.8-.868h-.58v-.178h-1.038v.178h-.567s-.015.866-.8.868l.004.106c-.166.011-.32.057-.473.101-.27.112-.516.243-.736.448l-.027-.046c-.162-.165-.442-.211-.675-.159-.139.038-.261.102-.388.172-.277.154-.506.372-.802.493-.105.019-.208-.016-.278-.073-.02-.01-.029-.058-.057-.039-.022.063-.019.154-.01.22.041.317.305.535.597.602.02.135.053.269.103.387.083.16.208.3.372.361.047-.46.305-.866.644-1.121.009.153-.023.332.033.473.02.06.084.092.134.118.21.106.5.12.718.016.093-.058.086-.186.124-.279.092-.323.35-.549.657-.64-.024.182-.047.302-.047.302s.8-.105 1.253.09c0 0 .111-.773.748-.773.641 0 .743.773.743.773.454-.195 1.254-.09 1.254-.09s-.021-.115-.045-.293m-6.468.593c0-.057.016-.122.016-.176-.03-.003-.065.016-.1.012-.173.007-.344-.054-.437-.205.022 0 .056.014.084.014.124-.019.22-.1.323-.163.245-.182.474-.393.758-.51.022.036.046.072.043.113-.162.207-.416.33-.559.56-.015.026-.009.06.003.086.09.045.628-.49.677-.384.022.023.038.06.041.096-.326.237-.606.55-.736.947-.08-.105-.11-.253-.113-.39m3.992-2.41s.017.26-.065 1.033c0 0-.245-.094-.418-.026.102.083.29.3.295.51 0 0-.225-.147-.503-.053.259.153.244.472.244.472-.358-.073-.613-.052-.613-.052s.083-.472.086-1.014c.662-.261.627-.87.627-.87h.347zm-1.398 1.531c-.393.106-.72.339-.909.74-.036.072-.075.165-.093.241-.031.03-.053.046-.1.042-.117-.042.023-.296.07-.445.04-.118.217-.3.167-.35-.122-.03-.165.064-.221.124-.124.18-.205.368-.274.582-.025.038-.096.059-.105-.041.02-.173.078-.339.149-.492.257-.526.78-.858 1.355-.915l-.009.13c-.246.05-.483.143-.679.292-.053.038-.115.092-.09.17.007.025.045.015.06.009.317-.179.543-.275.7-.281l-.02.194zm6.322 1.27c-.132-.397-.41-.711-.736-.948.003-.035.018-.073.04-.096.05-.106.587.429.677.384.013-.025.019-.06.003-.086-.142-.23-.396-.353-.559-.56-.003-.041.023-.077.044-.112.283.116.512.327.758.509.102.064.198.144.322.163.028 0 .062-.014.084-.014-.093.151-.264.212-.438.205-.034.004-.067-.015-.099-.012 0 .054.016.119.016.176-.003.137-.032.285-.112.39m-3.533-2.8s-.034.609.628.87c.002.542.085 1.014.085 1.014s-.255-.02-.611.052c0 0-.016-.32.243-.472-.279-.094-.504.052-.504.052.007-.209.194-.426.295-.509-.172-.068-.418.026-.418.026-.081-.773-.065-1.033-.065-1.033h.347zm1.03 1.337c.158.006.383.102.7.281.016.006.054.016.06-.01.025-.077-.036-.131-.091-.169-.195-.15-.432-.243-.678-.293L78.623 6c.575.057 1.098.39 1.355.915.07.153.13.319.15.492-.01.1-.082.08-.107.041-.07-.214-.15-.403-.273-.582-.056-.06-.1-.153-.22-.125-.051.05.125.233.165.351.048.15.187.403.07.445-.047.004-.068-.013-.099-.042-.019-.076-.058-.169-.093-.242-.188-.4-.517-.633-.91-.739l-.021-.194zm-1.902-.802c.166 0 .3.165.3.369 0 .203-.134.368-.3.368-.168 0-.302-.165-.302-.368 0-.204.134-.369.302-.369" transform="translate(-372 -686) translate(372 686) matrix(1 0 0 -1 0 12.828)"/>
                <path fill-rule="nonzero" d="M74.564 9.087l.11-.019.016-.108c-.15-.38-.941-.231-1.108.07-.06.11-.091.272-.17.338l-.008.128c.45.513.784.11 1.16-.409m-.788-.037l.051.392-.273-.067.222-.325zm.606-.03l-.23.291-.044-.397.274.106" transform="translate(-372 -686) translate(372 686) matrix(1 0 0 -1 0 18.466)"/>
                <path fill-rule="nonzero" d="M76.728.291c-.181.001-.586.22-.587.658v.175c-.23.125-.435.323-.497.604-.069.282.015.599.177.81-.015.051-.006.095.015.14.04.064.122.109.203.096.077-.022.12.058.186.083.03.013.056.035.065.071-.224.143-.548.277-.644.549.087-.014.193.005.282-.017-.008.032-.03.042-.058.049-.087.028-.183.05-.255.115-.103.09-.192.227-.22.364.043-.01.086-.035.133-.054.081-.032.177-.026.264-.042-.186.106-.413.15-.49.362-.026.07-.053.146-.053.227.105-.067.241-.051.35-.096l.078-.039c-.056.1-.1.24-.201.291-.073-.013-.138-.048-.215-.038-.155.006-.289.131-.336.275-.074.259.041.522.227.682.146.118.342.175.55.156.115-.02.257-.076.257-.076s.17.648.783.649c.675-.001.784-.649.784-.649s.142.057.257.076c.208.019.404-.038.55-.156.186-.16.301-.423.227-.682-.047-.144-.18-.269-.336-.275-.078-.01-.143.025-.214.038-.103-.051-.147-.191-.202-.291l.078.039c.108.045.245.029.35.096 0-.08-.027-.157-.053-.227-.077-.211-.304-.256-.49-.362.087.016.184.01.264.042.046.02.09.044.133.054-.027-.137-.118-.275-.22-.364-.071-.064-.168-.087-.255-.115-.028-.007-.05-.017-.059-.05.09.023.196.004.283.018-.096-.272-.418-.406-.643-.549.01-.036.035-.058.065-.07.066-.026.11-.106.188-.084.08.013.161-.032.201-.096.022-.045.031-.089.015-.14.162-.211.245-.528.178-.81-.062-.281-.267-.48-.497-.604V.949c-.002-.429-.382-.658-.618-.658m-.644 2.212c-.031-.01-.027-.046-.024-.075.022-.064.096-.064.149-.095-.097-.132-.158-.285-.178-.455-.011-.22.01-.467.213-.57.033-.009.058-.037.092-.03-.115.303-.074.68.037.978.003.054.057.016.084.016.06-.016.131-.01.186-.029-.015-.084-.033-.164-.046-.247-.027-.262-.012-.549.037-.8.063-.015.134-.018.2-.008.077.338.07.709.012 1.058.08.013.164.022.245.029.04-.06.059-.135.084-.205.077-.244.04-.547-.038-.777l.062.006c.128.046.19.17.23.288.08.272.01.576-.173.746.047.031.123.044.139.115-.016.032-.049.06-.09.05-.304-.13-.711-.146-1.03-.047-.066.012-.116.06-.191.052m.556 3.519c-.18-.037-.323-.146-.393-.308-.075-.159-.031-.373.104-.505.005.046.017.076.053.09.046.022.088-.002.128-.03.028-.022.042-.063.045-.101.025-.28-.058-.58-.07-.858-.003-.196.005-.532.018-.72.018-.148.029-.297.075-.424.013-.026.03-.051.065-.049.023.002.024.029.032.044-.066.273-.063.708-.054.971.017.329.09.637.106.958-.003.129 0 .259-.073.362-.039.036-.09.066-.145.064-.053-.003-.096-.027-.162-.086-.013.02-.014.047-.022.07-.002.126.045.254.16.308.099.061.251.063.356.016.164-.07.232-.232.232-.43-.016-.284-.133-.457-.18-.729-.093-.402-.108-1.086-.045-1.51.01-.017.024-.043.048-.033.03.006.028.035.038.058-.003.186.015.547.027.729.036.28.03.538.103.81.059.256.224.513.193.79-.02.12-.055.217-.124.312-.122.139-.307.228-.515.2m.752-1.018c-.113-.204-.122-.45-.133-.693.004-.35-.005-.7-.104-1.027.219.104.191.397.233.612.031.355.007.756.192 1.066.079.135.224.22.391.194.121-.01.205-.107.245-.214 0-.025.007-.055.016-.08.066.042.098.133.078.22-.044.156-.193.257-.36.27-.252.016-.458-.134-.558-.348m-1.834.348c-.167-.013-.316-.114-.361-.27-.019-.087.012-.178.08-.22.007.025.016.055.015.08.04.107.123.204.244.214.168.025.313-.06.392-.194.185-.31.161-.71.192-1.066.041-.215.015-.508.232-.612-.098.326-.107.678-.103 1.027-.011.243-.02.49-.132.693-.1.214-.308.364-.56.348m.826-4.316V.667l.161-.144v.458l-.161.054" transform="translate(-372 -686) translate(372 686) matrix(1 0 0 -1 0 6.576)"/>
                <path fill-rule="nonzero" d="M39.434 8.261c.652-.607 1.49-.768 1.872-.358.382.41.164 1.235-.488 1.843-.652.608-1.49.768-1.872.359-.383-.41-.163-1.235.488-1.844m17.065 3.55c-.306-.36-.848-.023-1.202.127-1.445.871-2.756 2.057-3.95 3.393-.629.738-1.291 1.455-1.598 2.342-.024.143.067.326.17.396.377.11.69-.091 1.019-.21 1.917-.918 3.66-2.803 4.996-4.539.275-.463.829-1.051.565-1.508M23.08 17.636c-1.021-.393-2.05-.762-3.173-.918-.746-.071-1.602-.118-2.16.4-.114.122-.12.228-.07.34.236.463.769.47 1.209.57 1.43.182 2.875-.038 4.194-.392M41.68 2.874l-.135-.157c-.58-.338-1.232.031-1.743.299-2.694 1.593-5.367 5.298-7.056 7.812.424-.072 2.074-.616 3.198-1.325 1.987-1.107 4.533-3.535 5.601-5.616.118-.306.307-.668.135-1.013m-7.96 13.43c-1.97 1.572-4.255 2.483-6.878 2.207-.88-.14-1.743-.33-2.591-.565-1.799.51-3.904.856-5.86.432-.487-.141-1.13-.393-1.24-.974-.04-.526.423-.958.847-1.17 2.278-1.107 5.106-.236 7.32.448.88-.645 1.642-1.508 2.318-2.341l1.434-1.782c.228-.33.75-1.013.75-1.013-2.333-.118-4.88-.386-6.294-2.412-.683-1.1-.604-2.647.071-3.732 1.421-2.081 3.77-2.701 6.142-2.842 1.477-.04 2.851.25 4.131.714 0 0-.03.236-.054.353-1.863-.47-4.124-.612-5.977.016-1.54.448-3.347 1.83-3.52 3.566-.164 1.155.425 2.23 1.438 2.843 1.265.778 2.788.943 4.359.99 1.964-2.584 4.8-6.008 7.502-7.76 1.092-.644 2.215-1.295 3.574-1.24.33.015.738.156.966.518.44.652.063 1.468-.25 2.057-1.392 2.419-4.26 4.807-6.593 5.891-.958.409-1.955.715-2.977.958-1.154 1.767-2.019 2.995-3.705 4.242-.732.542-1.531.974-2.372 1.289 1.57.666 3.825.674 5.365-.087 1.264-.597 2.473-1.547 3.416-2.734l2.384-3.016h2.47l-5.113 6.503c-.089.117-.112.224-.065.319.187.357.832 0 .832 0s.686-.262 3.183-2.51c.794-.715 1.5-1.421 2.169-2.246l1.678-2.106h2.327c-.557.723-1.06 1.407-1.555 2.098 1.193-.974 2.38-1.948 3.849-2.239.558-.078 1.09.095 1.405.566.409.652.15 1.51-.235 2.089l-.494.62-2.9 3.37c-.086.106-.076.206.01.279.212.146.51-.099.73-.168 1.083-.519 1.969-1.191 2.896-2.071.259-.29.503-.765.748-1.064 1.484-1.869 3.495-3.157 5.71-3.589.613-.087 1.365-.18 1.821.299.134.164.166.377.157.596l.354-.408 2.867-3.66 2.761-3.57h2.356l-6.845 8.872-3.487 4.5c-.04.078-.073.177-.034.255.092.2.466.09.663.05 1.46-.447 2.717-1.507 3.762-2.756l3.722-4.736-1.457-.001.523-.627h1.438s4.236-5.486 4.315-5.565h2.355l-4.245 5.534 3.492-.007-.56.656-3.434.002-5.607 7.172c-.081.11-.088.217-.062.287.073.146.154.19.345.185.76-.012 1.398-.52 2.073-1.054.747-.586 1.968-1.78 1.968-1.78l.377.392c-1.225 1.1-2.423 2.412-3.72 2.838-.384.149-1.2.33-1.813-.029-.606-.354-.686-.99-.252-1.853l-.048.008c-1.304 1.006-2.568 2.231-4.35 1.94-.347-.063-.669-.354-.818-.675-.15-.354-.165-.81-.055-1.179-.338.228-.675.543-1.02.778-.998.7-2.244 1.572-3.524 1.006-.526-.275-.71-.928-.695-1.5.016-.142.032-.3.055-.425-.958.785-1.92 1.433-3.012 1.888-.457.169-1.589.41-2.152-.162-.278-.34-.339-.63-.22-1.164.156-.66 1.583-2.141 1.583-2.141l2.773-3.126s.122-.139.005-.303c-.14-.196-.431-.03-.61.037-1.32.549-2.813 1.767-4.536 3.49-1.036.958-2.926 3.328-2.926 3.328l-2.35.002 1.785-2.273c-.056-.07-.141.031-.141.031s-1.8 1.79-3 2.276l-.022.009c-.457.168-1.591.41-2.154-.163-.279-.34-.34-.63-.221-1.164.13-.531.47-.816.47-.816" transform="translate(-372 -686) translate(372 686)"/>
            </g>
        </g>
    </g>
</svg>
