<?xml version="1.0" encoding="UTF-8"?>
<svg width="126px" height="88px" viewBox="0 0 126 88" version="1.1" xmlns="http://www.w3.org/2000/svg" xmlns:xlink="http://www.w3.org/1999/xlink">
    <!-- Generator: Sketch 61.2 (89653) - https://sketch.com -->
    <title>Artboard</title>
    <desc>Created with Sketch.</desc>
    <defs>
        <linearGradient x1="100.00052%" y1="49.9947984%" x2="0.000668424375%" y2="49.9947984%" id="linearGradient-1">
            <stop stop-color="#FFD400" offset="0%"></stop>
            <stop stop-color="#FFD000" offset="12.68%"></stop>
            <stop stop-color="#FDC400" offset="30.2%"></stop>
            <stop stop-color="#F9AE00" offset="50.54%"></stop>
            <stop stop-color="#F28D00" offset="73%"></stop>
            <stop stop-color="#EB6000" offset="96.94%"></stop>
            <stop stop-color="#EA5901" offset="100%"></stop>
        </linearGradient>
        <linearGradient x1="0.00113671997%" y1="49.999342%" x2="100.001529%" y2="49.999342%" id="linearGradient-2">
            <stop stop-color="#EF7C00" offset="0%"></stop>
            <stop stop-color="#F07E00" offset="36.04%"></stop>
            <stop stop-color="#F18500" offset="57.14%"></stop>
            <stop stop-color="#F39100" offset="74.39%"></stop>
            <stop stop-color="#F6A100" offset="89.46%"></stop>
            <stop stop-color="#F9B000" offset="100%"></stop>
        </linearGradient>
        <linearGradient x1="-0.000105835074%" y1="49.9967742%" x2="100.002364%" y2="49.9967742%" id="linearGradient-3">
            <stop stop-color="#FFED00" offset="0%"></stop>
            <stop stop-color="#FFCC00" offset="100%"></stop>
        </linearGradient>
    </defs>
    <g id="Artboard" stroke="none" stroke-width="1" fill="none" fill-rule="evenodd">
        <path d="M0,29.7022222 L0,55.4222222 C0,55.4222222 0,57.9422222 5.03112676,57.9422222 L114.442606,57.9422222 C119.473732,57.9422222 119.473732,60.4622222 119.473732,60.4622222 L119.473732,40.3066667 C119.473732,40.3066667 119.473732,37.7866667 114.442606,37.7866667 L5.02669014,32.2222222 C1.26,32.2222222 0,29.7022222 0,29.7022222" id="Path---Back" fill="url(#linearGradient-1)" fill-rule="nonzero"></path>
        <path d="M115.077042,43.8133333 C112.135563,44.4355556 36.7307746,60.4933333 6.28669014,66.9777778 L6.28669014,87.5866667 C36.7307746,81.1066667 112.135563,65.0488889 115.077042,64.4222222 C119.473732,63.4844444 119.473732,60.9111111 119.473732,60.9111111 L119.473732,40.3022222 C119.473732,40.3022222 119.473732,42.8844444 115.077042,43.8133333 Z" id="Path---Bottom" fill="url(#linearGradient-2)" fill-rule="nonzero"></path>
        <path d="M0,29.6577778 L0,55.4177778 C0,55.4177778 0,52.84 4.39669014,51.9066667 C6.85901408,51.3822222 125.760423,26.0666667 125.760423,26.0666667 L125.760423,0.306666667 C125.760423,0.306666667 6.76140845,25.6444444 4.34788732,26.1555556 C0,27.0755556 0,29.6577778 0,29.6577778" id="Path---Top" fill="url(#linearGradient-3)" fill-rule="nonzero"></path>
        <polygon id="Path" fill="#FFFFFF" fill-rule="nonzero" points="14.8271831 72.5244444 12.4802113 73.0222222 12.4935211 71.4177778 19.1661972 69.9955556 19.1528873 71.6 16.8059155 72.0977778 16.8147887 79.5777778 14.8360563 80"></polygon>
        <path d="M24.9293662,77.9911111 C22.5823944,78.4888889 20.5770423,77.3688889 20.2043662,74.9822222 C19.7429577,72.0177778 21.4421831,69.3822222 24.2461268,68.7866667 C26.6862676,68.2666667 28.629507,69.44 29.0021831,71.8266667 C29.4724648,74.8266667 27.7599296,77.3911111 24.9293662,77.9911111 Z M24.4457746,70.3733333 C22.6933099,70.7333333 21.9479577,72.6222222 22.236338,74.4888889 C22.458169,75.9288889 23.4342254,76.6844444 24.791831,76.3955556 C26.5043662,76.0311111 27.2497183,74.2088889 26.9569014,72.3155556 C26.7528169,70.9866667 25.8921127,70.0755556 24.4457746,70.3733333 Z" id="Shape" fill="#FFFFFF" fill-rule="nonzero"></path>
        <path d="M30.8522535,67.5111111 L33.7183099,66.9022222 C35.6127465,66.4977778 36.8683099,67.1466667 37.1123239,68.6933333 C37.449507,70.8577778 36.0874648,72.1777778 34.0821127,72.6044444 L32.8176761,72.8755556 L32.8176761,76.1777778 L30.8478169,76.5955556 L30.8522535,67.5111111 Z M33.8292254,71.2177778 C34.9206338,70.9866667 35.4175352,70.2933333 35.2578169,69.2622222 C35.1424648,68.5244444 34.6366901,68.2533333 33.7360563,68.4444444 L32.8132394,68.64 L32.8088028,71.4355556 L33.8292254,71.2177778 Z" id="Shape" fill="#FFFFFF" fill-rule="nonzero"></path>
        <path d="M46.8507042,73.3244444 C44.5037324,73.8222222 42.4983803,72.7022222 42.1257042,70.3155556 C41.6642958,67.3511111 43.3635211,64.7155556 46.1674648,64.12 C48.6076056,63.6 50.5508451,64.7733333 50.9235211,67.16 C51.3938028,70.16 49.6812676,72.7244444 46.8507042,73.3244444 Z M46.3671127,65.7066667 C44.6146479,66.0666667 43.8692958,67.9555556 44.1576761,69.8222222 C44.379507,71.2622222 45.3555634,72.0177778 46.713169,71.7288889 C48.4257042,71.3644444 49.1710563,69.5422222 48.8782394,67.6488889 C48.6697183,66.32 47.8134507,65.4088889 46.3671127,65.7066667 Z" id="Shape" fill="#FFFFFF" fill-rule="nonzero"></path>
        <polygon id="Path" fill="#FFFFFF" fill-rule="nonzero" points="52.7735915 62.84 58.3504225 61.6533333 58.3371127 63.2711111 54.7301408 64.04 54.7390141 66.44 57.5961972 65.8311111 57.5873239 67.3822222 54.7301408 67.9911111 54.7390141 71.5066667 52.7691549 71.9244444"></polygon>
        <polygon id="Path" fill="#FFFFFF" fill-rule="nonzero" points="63.7719718 60.5022222 69.3976056 59.3022222 69.3976056 60.9022222 65.7285211 61.6844444 65.7329577 63.8044444 68.6877465 63.1733333 68.6966197 64.6711111 65.741831 65.3022222 65.7285211 67.5644444 69.6283099 66.7333333 69.6283099 68.3333333 63.7719718 69.5822222"></polygon>
        <path d="M71.3230888,64.1777778 L71.3275352,58.8933333 L73.3062676,58.4711111 L73.2973944,63.8088889 C73.2929577,65.3866667 73.8564085,65.9377778 75.0720423,65.68 C76.1767606,65.4444444 76.5938028,64.7333333 76.5982394,63.3111111 L76.6026761,57.7733333 L78.5814085,57.3511111 L78.5725352,63.0933333 C78.5769718,65.3688889 77.5654225,66.7866667 75.2805634,67.2755556 C72.8182394,67.7955556 71.318662,66.7955556 71.3230888,64.1777778 Z" id="Path" fill="#FFFFFF" fill-rule="nonzero"></path>
        <path d="M80.7464789,56.8844444 L83.7722535,56.24 C85.68,55.8355556 86.9222535,56.4711111 87.1485211,58 C87.3880986,59.5244444 86.5761972,60.6 85.3783099,61.1333333 L87.7829577,64.4711111 L85.7554225,64.9022222 L83.5726056,61.8622222 L82.6985915,62.0488889 L82.7030282,65.5511111 L80.7464789,65.9688889 L80.7464789,56.8844444 Z M83.8565493,60.4044444 C84.9035915,60.1822222 85.400493,59.6044444 85.2452113,58.6088889 C85.143169,57.8666667 84.6285211,57.6355556 83.7766901,57.8177778 L82.7074648,58.0444444 L82.6985915,60.6488889 L83.8565493,60.4044444 Z" id="Shape" fill="#FFFFFF" fill-rule="nonzero"></path>
        <path d="M93.4485211,63.4044444 C91.1015493,63.9022222 89.0961972,62.7822222 88.7235211,60.3955556 C88.2621127,57.4311111 89.961338,54.7955556 92.7652817,54.2 C95.2054225,53.68 97.148662,54.8533333 97.521338,57.24 C97.9916197,60.24 96.2790845,62.8 93.4485211,63.4044444 Z M92.9649296,55.7822222 C91.2124648,56.1422222 90.4671127,58.0311111 90.755493,59.8977778 C90.9773239,61.3377778 91.9533803,62.0933333 93.3109859,61.8044444 C95.0235211,61.44 95.7688732,59.6177778 95.4760563,57.7244444 C95.2719718,56.3955556 94.4112676,55.4888889 92.9649296,55.7822222 Z" id="Shape" fill="#FFFFFF" fill-rule="nonzero"></path>
        <path d="M99.3758451,52.92 L102.241901,52.3111111 C104.136338,51.9066667 105.391901,52.5555556 105.635915,54.1022222 C105.973099,56.2666667 104.611056,57.5866667 102.605704,58.0133333 L101.341268,58.2844444 L101.341268,61.5866667 L99.3714085,62.0044444 L99.3758451,52.92 Z M102.34838,56.6311111 C103.439789,56.4 103.93669,55.7066667 103.776972,54.6755556 C103.66162,53.9377778 103.155845,53.6622222 102.255211,53.8577778 L101.332394,54.0533333 L101.327958,56.8488889 L102.34838,56.6311111 Z" id="Shape" fill="#FFFFFF" fill-rule="nonzero"></path>
        <polygon id="Path" fill="#FFFFFF" fill-rule="nonzero" points="107.344014 51.2222222 112.969648 50.0222222 112.969648 51.6222222 109.300563 52.4044444 109.305 54.5244444 112.259789 53.8933333 112.268662 55.3911111 109.313873 56.0222222 109.300563 58.2844444 113.200352 57.4533333 113.200352 59.0533333 107.344014 60.3022222"></polygon>
        <path d="M18.0570423,39.0488889 L18.0747887,28.8 L14.8937324,29.48 L14.8892958,39.56 C14.898169,41.0488889 14.2282394,41.7866667 13.0747183,42.0311111 C12.2539437,42.2044444 11.655,42.1066667 11.1314789,41.9955556 L11.1359155,44.4888889 C11.6461268,44.6444444 12.4358451,44.8044444 13.9398592,44.4844444 C16.4997887,43.9422222 18.0659155,42.2177778 18.0570423,39.0488889 M32.3207746,35.0133333 L32.3340845,25.7688889 L29.1485915,26.4444444 L29.1441549,35.36 C29.1397183,37.6533333 28.4697887,38.7955556 26.6907042,39.1733333 C24.7385915,39.5911111 23.8335211,38.6977778 23.8423944,36.16 L23.8557042,27.5688889 L20.6746479,28.2488889 L20.6701868,36.7555556 C20.661338,40.9688889 23.0704225,42.5822222 27.0367606,41.7377778 C30.7014085,40.96 32.3252113,38.6711111 32.3207746,35.0133333 M46.6998592,37.3244444 L46.6998592,22.7066667 L43.8471127,23.3155556 L43.8338028,32.9466667 L38.5985915,24.4311111 L34.9073239,25.2177778 L34.9028873,39.84 L37.7556338,39.2311111 L37.7467606,28.8266667 L43.5143662,38.0044444 L46.6998592,37.3244444 Z M55.7860563,29.9733333 L58.9715493,29.2933333 C58.811831,31.2577778 58.0842254,32.5688889 55.8304225,33.0488889 C53.4657042,33.5511111 52.2101408,32.2666667 51.8773944,29.8622222 C51.4559155,26.8044444 52.5517606,23.8711111 55.2847183,23.2888889 C57.0016901,22.9244444 58.146338,23.4977778 58.5278873,25.0711111 L61.5492254,24.4266667 C60.8926056,20.9866667 58.1596479,20.0577778 55.031831,20.7244444 C50.5597183,21.6755556 48.288169,25.88 48.9270423,30.5111111 C49.4683099,34.4444444 51.9173239,36.44 56.0966197,35.5466667 C60.4533803,34.6177778 62.241338,31.64 61.8597887,26.2622222 L55.8392958,27.5466667 L55.7860563,29.9733333 Z M73.2796479,19.6444444 L73.2973944,17.0444444 L64.2111972,18.9777778 L64.2067606,33.5955556 L67.3700704,32.92 L67.3567606,27.2577778 L72.0684507,26.2533333 L72.0817606,23.7555556 L67.3700704,24.76 L67.3523239,20.8977778 L73.2796479,19.6444444 Z M83.1910563,19.2533333 C83.439507,20.8577778 82.2061268,21.8755556 80.5290845,22.2311111 L78.4261268,22.68 L78.4394366,18.4844444 L80.4048592,18.0666667 C81.771338,17.7733333 83.0047183,17.9644444 83.1910563,19.2533333 M86.123662,18.2977778 C85.7598592,15.84 83.4572535,14.88 80.3915493,15.5333333 L75.285,16.6222222 L75.2805634,31.24 L78.4261268,30.5688889 L78.4172535,25.0844444 L79.9212676,24.7644444 L83.3285915,29.5244444 L86.589507,28.8311111 L82.8316901,23.5911111 C84.7527465,22.7333333 86.5052113,20.7555556 86.123662,18.2977778 M95.9995775,21.2266667 L92.3260563,22.0088889 L93.9542958,15.3422222 L95.9995775,21.2266667 Z M97.8319014,26.44 L101.07507,25.7511111 L96.0572535,12.2 L91.629507,13.1422222 L87.5256338,28.6355556 L90.8797183,27.92 L91.7049296,24.4933333 L96.7626761,23.4177778 L97.8319014,26.44 Z M113.187042,8.55111111 L110.005986,9.23111111 L110.001549,18.1466667 C109.997113,20.44 109.327183,21.5822222 107.548099,21.96 C105.595986,22.3777778 104.690915,21.4844444 104.699789,18.9466667 L104.713099,10.3555556 L101.532042,11.0355556 L101.527581,19.5422222 C101.518732,23.7555556 103.927817,25.3688889 107.894155,24.5244444 C111.567676,23.7422222 113.187042,21.4533333 113.182606,17.7955556 L113.187042,8.55111111 Z" id="Shape" fill="#000000" fill-rule="nonzero"></path>
    </g>
</svg>